<svg width="20" height="60" viewBox="0 0 20 60" fill="none" xmlns="http://www.w3.org/2000/svg">
<path d="M20 27.0531H18.04V29.0442H20V30.9558H18.04V33.0266H20V35.0177H18.04V37.0089C18.04 37.5396 17.84 38.0044 17.44 38.4027C17.04 38.8009 16.56 39 16 39H2C1.46667 39 1 38.8009 0.6 38.4027C0.2 38.0044 0 37.5396 0 37.0089V23.0708C0 22.4865 0.2 21.9956 0.6 21.5973C1 21.1991 1.46667 21 2 21H16C16.56 21 17.04 21.1991 17.44 21.5973C17.84 21.9956 18.04 22.4865 18.04 23.0708V24.9823H20V27.0531ZM16 37.0089V23.0708H2V37.0089H16ZM4 30.9558V35.0177H9.04V30.9558H4ZM10 24.9823V28.0088H14V24.9823H10ZM4 24.9823V30H9.04V24.9823H4ZM10 29.0442V35.0177H14V29.0442H10Z" fill="#D9D9D9"/>
</svg>
