<svg width="20" height="60" viewBox="0 0 20 60" fill="none" xmlns="http://www.w3.org/2000/svg">
<path d="M10 39L6.68 34.2201C7.64 33.4162 8.74669 33.0144 10 33.0144C11.2533 33.0144 12.3733 33.4162 13.36 34.2201L10 39ZM10 21C11.8667 21 13.64 21.3158 15.32 21.9474C17.0267 22.5789 18.5867 23.4689 20 24.6172L18.36 27.0287C17.16 26.0526 15.8533 25.3062 14.44 24.7895C13.0267 24.2727 11.5467 24.0144 10 24.0144C8.45331 24.0144 6.97331 24.2727 5.56 24.7895C4.14667 25.3062 2.85333 26.0526 1.68 27.0287L0 24.6172C1.41333 23.4689 2.96 22.5789 4.64 21.9474C6.34669 21.3158 8.13331 21 10 21ZM10 27.0287C11.2267 27.0287 12.4133 27.244 13.56 27.6746C14.7067 28.0765 15.76 28.6507 16.72 29.3971L15 31.7656C13.5333 30.5885 11.8667 30 10 30C8.16 30 6.49331 30.5885 5 31.7656L3.32 29.3971C4.28 28.6507 5.32 28.0765 6.44 27.6746C7.58669 27.244 8.77331 27.0287 10 27.0287Z" fill="#D9D9D9"/>
</svg>
