<svg width="20" height="60" viewBox="0 0 20 60" fill="none" xmlns="http://www.w3.org/2000/svg">
<path d="M2.2 23H17.76C18.3733 23 18.8933 23.2249 19.32 23.6747C19.7467 24.1245 19.9733 24.6867 20 25.3614V25.6145C20 25.8393 19.88 26.0361 19.64 26.2048C19.1333 26.5422 18.88 27.0201 18.88 27.6386C18.88 28.3133 19.1333 28.8193 19.64 29.1566C19.88 29.3253 20 29.5221 20 29.747V32.3614H0V29.747C0 29.5221 0.12 29.3253 0.36 29.1566C0.866669 28.7631 1.12 28.2571 1.12 27.6386C1.12 27.0201 0.866669 26.5422 0.36 26.2048C0.12 26.0361 0 25.8393 0 25.6145V25.3614C0 24.6867 0.213333 24.1245 0.64 23.6747C1.06667 23.2249 1.58667 23 2.2 23ZM20 33.5422V35.9036C20 36.241 19.8933 36.494 19.68 36.6626C19.4667 36.8875 19.2 37 18.88 37H17.2V35.9036C17.2 35.7349 17.1467 35.5944 17.04 35.4819C16.9333 35.3695 16.8 35.3133 16.64 35.3133C16.48 35.3133 16.36 35.3695 16.28 35.4819C16.1733 35.5944 16.12 35.7349 16.12 35.9036V37H12.76V35.9036C12.76 35.7349 12.7067 35.5944 12.6 35.4819C12.4933 35.3695 12.3733 35.3133 12.24 35.3133C12.08 35.3133 11.9467 35.3695 11.84 35.4819C11.7333 35.5944 11.68 35.7349 11.68 35.9036V37H8.32V35.9036C8.32 35.7349 8.26669 35.5944 8.16 35.4819C8.05331 35.3695 7.92 35.3133 7.76 35.3133C7.6 35.3133 7.48 35.3695 7.4 35.4819C7.29331 35.5944 7.22669 35.7349 7.2 35.9036V37H3.88V35.9036C3.88 35.7349 3.82667 35.5944 3.72 35.4819C3.61333 35.3695 3.48 35.3133 3.32 35.3133C3.16 35.3133 3.02667 35.3695 2.92 35.4819C2.81333 35.5944 2.76 35.7349 2.76 35.9036V37H1.12C0.8 37 0.533333 36.8875 0.32 36.6626C0.106667 36.4378 0 36.1848 0 35.9036V33.5422H20ZM6.64 26.4578C6.64 26.1205 6.53331 25.8675 6.32 25.6988C6.10667 25.4739 5.85333 25.3614 5.56 25.3614C5.24 25.3614 4.97333 25.4739 4.76 25.6988C4.54667 25.9237 4.44 26.1767 4.44 26.4578V28.8193C4.44 29.1566 4.54667 29.4378 4.76 29.6626C4.97333 29.8875 5.24 30 5.56 30C5.88 30 6.13333 29.8875 6.32 29.6626C6.53331 29.4378 6.64 29.1566 6.64 28.8193V26.4578ZM11.12 26.4578C11.12 26.1205 11 25.8675 10.76 25.6988C10.5467 25.4739 10.2933 25.3614 10 25.3614C9.68 25.3614 9.41331 25.4739 9.2 25.6988C8.98669 25.9237 8.88 26.1767 8.88 26.4578V28.8193C8.88 29.1566 8.98669 29.4378 9.2 29.6626C9.41331 29.8875 9.68 30 10 30C10.32 30 10.5733 29.8875 10.76 29.6626C10.9733 29.4378 11.0933 29.1566 11.12 28.8193V26.4578ZM15.56 26.4578C15.56 26.1205 15.4533 25.8675 15.24 25.6988C15.0267 25.4739 14.76 25.3614 14.44 25.3614C14.12 25.3614 13.8533 25.4739 13.64 25.6988C13.4267 25.9237 13.32 26.1767 13.32 26.4578V28.8193C13.32 29.1566 13.4267 29.4378 13.64 29.6626C13.8533 29.8875 14.12 30 14.44 30C14.76 30 15.0267 29.8875 15.24 29.6626C15.4533 29.4378 15.56 29.1566 15.56 28.8193V26.4578Z" fill="#D9D9D9"/>
</svg>
