<svg width="20" height="60" viewBox="0 0 20 60" fill="none" xmlns="http://www.w3.org/2000/svg">
<path d="M2.48 21H17.48C18.1733 21 18.76 21.2601 19.24 21.7808C19.72 22.274 19.9733 22.8769 20 23.589V26.137C20 26.8491 19.7467 27.4655 19.24 27.9863C18.76 28.4795 18.1733 28.726 17.48 28.726H2.48C1.78667 28.726 1.2 28.4795 0.72 27.9863C0.24 27.4932 0 26.8767 0 26.137V23.589C0 22.8769 0.24 22.274 0.72 21.7808C1.2 21.2601 1.78667 21 2.48 21ZM14.08 24.2055C13.92 24.0135 13.7067 23.9178 13.44 23.9178C13.1733 23.9178 12.9467 24.0135 12.76 24.2055C12.5733 24.3975 12.48 24.6299 12.48 24.9041C12.48 25.1783 12.5733 25.3973 12.76 25.5616C12.9467 25.7536 13.1733 25.8493 13.44 25.8493C13.7067 25.8493 13.92 25.7536 14.08 25.5616C14.2667 25.3697 14.36 25.1507 14.36 24.9041C14.36 24.6299 14.2667 24.3975 14.08 24.2055ZM15.56 24.2055C15.4 24.3975 15.32 24.6299 15.32 24.9041C15.32 25.1783 15.4 25.3973 15.56 25.5616C15.7467 25.7536 15.9733 25.8493 16.24 25.8493C16.5067 25.8493 16.72 25.7536 16.88 25.5616C17.0667 25.3697 17.16 25.1507 17.16 24.9041C17.16 24.6299 17.0667 24.3975 16.88 24.2055C16.6933 24.0135 16.48 23.9178 16.24 23.9178C15.9733 23.9178 15.7467 24.0135 15.56 24.2055ZM2.48 31.3151H17.48C18.1733 31.3151 18.76 31.5616 19.24 32.0548C19.72 32.5479 19.9733 33.1509 20 33.863V36.4521C20 37.1642 19.7467 37.7671 19.24 38.2603C18.76 38.7534 18.1733 39 17.48 39H2.48C1.78667 39 1.2 38.7534 0.72 38.2603C0.24 37.7671 0 37.1642 0 36.4521V33.863C0 33.1509 0.24 32.5479 0.72 32.0548C1.2 31.5616 1.78667 31.3151 2.48 31.3151ZM14.08 34.4795C13.92 34.2875 13.7067 34.1918 13.44 34.1918C13.1733 34.1918 12.9467 34.2875 12.76 34.4795C12.5733 34.6715 12.48 34.8904 12.48 35.137C12.48 35.4112 12.5733 35.6436 12.76 35.8356C12.9467 36.0276 13.1733 36.1233 13.44 36.1233C13.7067 36.1233 13.92 36.0276 14.08 35.8356C14.2667 35.6436 14.36 35.4112 14.36 35.137C14.36 34.8628 14.2667 34.6438 14.08 34.4795ZM15.88 34.4795C15.6933 34.6438 15.6 34.8628 15.6 35.137C15.6 35.4112 15.6933 35.6436 15.88 35.8356C16.0667 36.0276 16.28 36.1233 16.52 36.1233C16.7867 36.1233 17.0133 36.0276 17.2 35.8356C17.3867 35.6436 17.48 35.4112 17.48 35.137C17.48 34.8628 17.3867 34.6438 17.2 34.4795C17.0133 34.2875 16.7867 34.1918 16.52 34.1918C16.2533 34.1918 16.04 34.2875 15.88 34.4795Z" fill="#D9D9D9"/>
</svg>
